<svg xmlns="http://www.w3.org/2000/svg" width="263.77" height="35" viewBox="0 0 263.77 35"><rect class="svg__rect" x="0" y="0" width="147.85" height="35" fill="#E46C17"/><rect class="svg__rect" x="145.85" y="0" width="117.92000000000002" height="35" fill="#D35B09"/><path class="svg__text" d="M15.78 22L14.31 22L14.31 13.47L15.78 13.47L15.78 22ZM22.27 14.66L19.64 14.66L19.64 13.47L26.40 13.47L26.40 14.66L23.74 14.66L23.74 22L22.27 22L22.27 14.66ZM35.53 19.57L35.53 19.57L37.01 19.57Q37.01 20.25 37.35 20.59Q37.68 20.93 38.32 20.93L38.32 20.93Q38.92 20.93 39.27 20.54Q39.63 20.14 39.63 19.45L39.63 19.45L39.63 13.47L41.11 13.47L41.11 19.45Q41.11 20.68 40.34 21.40Q39.58 22.12 38.32 22.12L38.32 22.12Q36.99 22.12 36.26 21.44Q35.53 20.77 35.53 19.57ZM45.65 19.16L45.65 19.16L45.65 13.47L47.13 13.47L47.13 19.18Q47.13 20.03 47.56 20.48Q48.00 20.93 48.84 20.93L48.84 20.93Q50.55 20.93 50.55 19.13L50.55 19.13L50.55 13.47L52.03 13.47L52.03 19.17Q52.03 20.53 51.16 21.32Q50.29 22.12 48.84 22.12L48.84 22.12Q47.38 22.12 46.51 21.33Q45.65 20.55 45.65 19.16ZM56.16 19.42L56.16 19.42L57.65 19.42Q57.65 20.15 58.13 20.55Q58.61 20.95 59.50 20.95L59.50 20.95Q60.28 20.95 60.67 20.63Q61.06 20.32 61.06 19.80L61.06 19.80Q61.06 19.24 60.66 18.94Q60.27 18.63 59.23 18.32Q58.20 18.01 57.59 17.63L57.59 17.63Q56.43 16.90 56.43 15.72L56.43 15.72Q56.43 14.69 57.27 14.02Q58.11 13.35 59.45 13.35L59.45 13.35Q60.34 13.35 61.04 13.68Q61.74 14.01 62.14 14.61Q62.53 15.22 62.53 15.96L62.53 15.96L61.06 15.96Q61.06 15.29 60.64 14.91Q60.22 14.54 59.44 14.54L59.44 14.54Q58.71 14.54 58.31 14.85Q57.91 15.16 57.91 15.71L57.91 15.71Q57.91 16.18 58.34 16.50Q58.78 16.81 59.77 17.10Q60.77 17.40 61.37 17.78Q61.98 18.16 62.26 18.65Q62.54 19.13 62.54 19.79L62.54 19.79Q62.54 20.86 61.72 21.49Q60.90 22.12 59.50 22.12L59.50 22.12Q58.58 22.12 57.80 21.77Q57.03 21.43 56.60 20.83Q56.16 20.22 56.16 19.42ZM68.51 14.66L65.87 14.66L65.87 13.47L72.64 13.47L72.64 14.66L69.98 14.66L69.98 22L68.51 22L68.51 14.66ZM83.76 22L81.79 13.47L83.26 13.47L84.58 19.88L86.21 13.47L87.45 13.47L89.06 19.89L90.38 13.47L91.85 13.47L89.88 22L88.46 22L86.84 15.77L85.18 22L83.76 22ZM95.65 18.00L95.65 18.00L95.65 17.52Q95.65 16.28 96.09 15.32Q96.54 14.37 97.34 13.86Q98.15 13.35 99.19 13.35Q100.23 13.35 101.04 13.85Q101.84 14.35 102.28 15.29Q102.72 16.23 102.73 17.48L102.73 17.48L102.73 17.96Q102.73 19.21 102.30 20.16Q101.86 21.10 101.06 21.61Q100.25 22.12 99.20 22.12L99.20 22.12Q98.16 22.12 97.35 21.61Q96.54 21.10 96.10 20.17Q95.66 19.23 95.65 18.00ZM97.13 17.46L97.13 17.96Q97.13 19.36 97.68 20.13Q98.23 20.90 99.20 20.90L99.20 20.90Q100.19 20.90 100.72 20.15Q101.25 19.40 101.25 17.96L101.25 17.96L101.25 17.51Q101.25 16.09 100.71 15.34Q100.17 14.58 99.19 14.58L99.19 14.58Q98.23 14.58 97.69 15.33Q97.14 16.09 97.13 17.46L97.13 17.46ZM108.68 22L107.19 22L107.19 13.47L110.19 13.47Q111.67 13.47 112.47 14.13Q113.28 14.79 113.28 16.05L113.28 16.05Q113.28 16.90 112.86 17.48Q112.45 18.06 111.71 18.37L111.71 18.37L113.63 21.92L113.63 22L112.04 22L110.33 18.71L108.68 18.71L108.68 22ZM108.68 14.66L108.68 17.52L110.20 17.52Q110.95 17.52 111.37 17.15Q111.79 16.77 111.79 16.11L111.79 16.11Q111.79 15.43 111.40 15.05Q111.01 14.68 110.24 14.66L110.24 14.66L108.68 14.66ZM119.15 22L117.67 22L117.67 13.47L119.15 13.47L119.15 17.47L119.97 16.46L122.47 13.47L124.26 13.47L121.09 17.25L124.44 22L122.69 22L120.12 18.31L119.15 19.34L119.15 22ZM127.79 19.42L127.79 19.42L129.27 19.42Q129.27 20.15 129.75 20.55Q130.23 20.95 131.13 20.95L131.13 20.95Q131.90 20.95 132.29 20.63Q132.68 20.32 132.68 19.80L132.68 19.80Q132.68 19.24 132.29 18.94Q131.89 18.63 130.86 18.32Q129.83 18.01 129.22 17.63L129.22 17.63Q128.05 16.90 128.05 15.72L128.05 15.72Q128.05 14.69 128.89 14.02Q129.73 13.35 131.08 13.35L131.08 13.35Q131.97 13.35 132.66 13.68Q133.36 14.01 133.76 14.61Q134.16 15.22 134.16 15.96L134.16 15.96L132.68 15.96Q132.68 15.29 132.26 14.91Q131.84 14.54 131.06 14.54L131.06 14.54Q130.34 14.54 129.94 14.85Q129.54 15.16 129.54 15.71L129.54 15.71Q129.54 16.18 129.97 16.50Q130.40 16.81 131.40 17.10Q132.39 17.40 133.00 17.78Q133.60 18.16 133.88 18.65Q134.16 19.13 134.16 19.79L134.16 19.79Q134.16 20.86 133.35 21.49Q132.53 22.12 131.13 22.12L131.13 22.12Q130.20 22.12 129.43 21.77Q128.65 21.43 128.22 20.83Q127.79 20.22 127.79 19.42Z" fill="#FFFFFF"/><path class="svg__text" d="M159.45 21.24L159.45 21.24L160.23 19.49Q160.79 19.86 161.54 20.09Q162.28 20.32 163.00 20.32L163.00 20.32Q164.37 20.32 164.37 19.64L164.37 19.64Q164.37 19.28 163.98 19.11Q163.59 18.93 162.73 18.74L162.73 18.74Q161.78 18.53 161.14 18.30Q160.51 18.06 160.05 17.55Q159.60 17.03 159.60 16.16L159.60 16.16Q159.60 15.39 160.02 14.77Q160.44 14.15 161.27 13.79Q162.11 13.43 163.31 13.43L163.31 13.43Q164.14 13.43 164.95 13.62Q165.75 13.80 166.37 14.17L166.37 14.17L165.63 15.93Q164.43 15.28 163.30 15.28L163.30 15.28Q162.59 15.28 162.27 15.49Q161.95 15.70 161.95 16.04L161.95 16.04Q161.95 16.37 162.33 16.54Q162.72 16.71 163.57 16.89L163.57 16.89Q164.53 17.10 165.16 17.33Q165.79 17.56 166.25 18.07Q166.71 18.58 166.71 19.46L166.71 19.46Q166.71 20.21 166.29 20.83Q165.87 21.44 165.03 21.80Q164.19 22.17 162.99 22.17L162.99 22.17Q161.97 22.17 161.01 21.92Q160.05 21.67 159.45 21.24ZM170.86 17.80L170.86 17.80Q170.86 16.55 171.46 15.55Q172.07 14.56 173.13 14.00Q174.19 13.43 175.52 13.43L175.52 13.43Q176.85 13.43 177.92 14.00Q178.98 14.56 179.59 15.55Q180.19 16.55 180.19 17.80L180.19 17.80Q180.19 19.05 179.59 20.04Q178.98 21.04 177.92 21.60Q176.86 22.17 175.52 22.17L175.52 22.17Q174.19 22.17 173.13 21.60Q172.07 21.04 171.46 20.04Q170.86 19.05 170.86 17.80ZM173.26 17.80L173.26 17.80Q173.26 18.51 173.56 19.05Q173.86 19.60 174.38 19.90Q174.89 20.20 175.52 20.20L175.52 20.20Q176.16 20.20 176.68 19.90Q177.19 19.60 177.49 19.05Q177.79 18.51 177.79 17.80L177.79 17.80Q177.79 17.09 177.49 16.54Q177.19 16 176.68 15.70Q176.16 15.40 175.52 15.40L175.52 15.40Q174.89 15.40 174.37 15.70Q173.86 16 173.56 16.54Q173.26 17.09 173.26 17.80ZM187.12 22L184.92 22L184.92 13.60L186.88 13.60L189.83 18.45L192.72 13.60L194.67 13.60L194.69 22L192.51 22L192.49 17.55L190.32 21.17L189.27 21.17L187.12 17.67L187.12 22ZM206.60 22L199.85 22L199.85 13.60L206.44 13.60L206.44 15.44L202.21 15.44L202.21 16.85L205.94 16.85L205.94 18.63L202.21 18.63L202.21 20.17L206.60 20.17L206.60 22ZM213.78 22L211.40 22L211.40 13.60L213.78 13.60L213.78 16.76L217.02 16.76L217.02 13.60L219.39 13.60L219.39 22L217.02 22L217.02 18.72L213.78 18.72L213.78 22ZM224.13 17.80L224.13 17.80Q224.13 16.55 224.73 15.55Q225.33 14.56 226.40 14.00Q227.46 13.43 228.79 13.43L228.79 13.43Q230.12 13.43 231.19 14.00Q232.25 14.56 232.86 15.55Q233.46 16.55 233.46 17.80L233.46 17.80Q233.46 19.05 232.86 20.04Q232.25 21.04 231.19 21.60Q230.13 22.17 228.79 22.17L228.79 22.17Q227.46 22.17 226.40 21.60Q225.33 21.04 224.73 20.04Q224.13 19.05 224.13 17.80ZM226.52 17.80L226.52 17.80Q226.52 18.51 226.83 19.05Q227.13 19.60 227.64 19.90Q228.16 20.20 228.79 20.20L228.79 20.20Q229.43 20.20 229.95 19.90Q230.46 19.60 230.76 19.05Q231.06 18.51 231.06 17.80L231.06 17.80Q231.06 17.09 230.76 16.54Q230.46 16 229.95 15.70Q229.43 15.40 228.79 15.40L228.79 15.40Q228.15 15.40 227.64 15.70Q227.13 16 226.83 16.54Q226.52 17.09 226.52 17.80ZM240.27 22L237.55 13.60L239.99 13.60L241.68 18.96L243.46 13.60L245.64 13.60L247.34 19.01L249.10 13.60L251.37 13.60L248.64 22L246.10 22L244.49 16.89L242.81 22L240.27 22Z" fill="#FFFFFF" x="158.85"/></svg>